{
	"asset":{
		"generator":"Khronos glTF Blender I/O v4.0.44",
		"version":"2.0"
	},
	"scene":0,
	"scenes":[
		{
			"name":"Scene",
			"nodes":[
				0,
				1,
				2,
				3,
				4,
				5,
				6,
				7,
				8,
				9,
				10,
				11,
				12,
				13,
				14,
				15,
				16,
				17,
				18,
				19,
				20,
				21,
				22,
				23,
				24,
				25,
				26
			]
		}
	],
	"nodes":[
		{
			"mesh":0,
			"name":"Sphere",
			"scale":[
				-0.16964678466320038,
				-0.16964678466320038,
				-0.16964678466320038
			],
			"translation":[
				0.02233278751373291,
				0,
				-1.073368787765503
			]
		},
		{
			"name":"Empty.001",
			"rotation":[
				0,
				-0.7071068286895752,
				0.7071068286895752,
				3.090862321641907e-08
			],
			"scale":[
				0.37954071164131165,
				0.37954071164131165,
				0.37954071164131165
			],
			"translation":[
				2.065288543701172,
				2.2397987842559814,
				-0.5555128455162048
			]
		},
		{
			"name":"Empty",
			"rotation":[
				0.1830127090215683,
				0.6830126643180847,
				-0.6830127239227295,
				0.1830127090215683
			],
			"scale":[
				0.4923659563064575,
				0.4923659563064575,
				0.4923659563064575
			],
			"translation":[
				-1.7164303064346313,
				0.2958976626396179,
				0.8201032876968384
			]
		},
		{
			"name":"Empty.005",
			"rotation":[
				0.5,
				-0.5,
				0.5,
				0.5
			],
			"translation":[
				4.212008953094482,
				1.3346781730651855,
				3.7361481189727783
			]
		},
		{
			"mesh":1,
			"name":"Roundcube.001",
			"translation":[
				0,
				2.145793914794922,
				0
			]
		},
		{
			"name":"Empty.002",
			"rotation":[
				0.027398493140935898,
				0.7555708289146423,
				-0.6537272930145264,
				0.031666349619627
			],
			"translation":[
				-4.826425552368164,
				1.7976590394973755,
				-0.2604339122772217
			]
		},
		{
			"name":"Empty.003",
			"rotation":[
				0.5,
				-0.5,
				0.5,
				0.5
			],
			"translation":[
				4.223804950714111,
				1.571275234222412,
				6.278875350952148
			]
		},
		{
			"mesh":2,
			"name":"Sphere.001",
			"scale":[
				0.5561487674713135,
				0.5561487674713135,
				0.5561487674713135
			],
			"translation":[
				0.00042280182242393494,
				2.166301727294922,
				-0.3408333957195282
			]
		},
		{
			"name":"Empty.004",
			"rotation":[
				0.7071068286895752,
				0,
				0,
				0.7071068286895752
			],
			"scale":[
				1.422405481338501,
				1.422405481338501,
				1.422405481338501
			],
			"translation":[
				-3.6991639137268066,
				4.80800724029541,
				-0.06926977634429932
			]
		},
		{
			"name":"Empty.006",
			"rotation":[
				0,
				-0.7071068286895752,
				0.7071068286895752,
				3.090862321641907e-08
			],
			"translation":[
				3.8978142738342285,
				-1.7539819478988647,
				-0.21040627360343933
			]
		},
		{
			"name":"Empty.007",
			"rotation":[
				0,
				-0.7071068286895752,
				0.7071068286895752,
				3.090862321641907e-08
			],
			"translation":[
				5.139699935913086,
				3.2431583404541016,
				0.34967806935310364
			]
		},
		{
			"mesh":3,
			"name":"Sphere.002",
			"scale":[
				0.31460040807724,
				0.31460040807724,
				0.31460040807724
			],
			"translation":[
				5.65496826171875,
				4.861123561859131,
				0.5765582323074341
			]
		},
		{
			"mesh":4,
			"name":"Sphere.003",
			"scale":[
				0.31460040807724,
				0.31460040807724,
				0.31460040807724
			],
			"translation":[
				5.65496826171875,
				4.314494609832764,
				0.5765582323074341
			]
		},
		{
			"mesh":5,
			"name":"Sphere.004",
			"scale":[
				0.31460040807724,
				0.31460040807724,
				0.31460040807724
			],
			"translation":[
				5.65496826171875,
				3.782522439956665,
				0.5765582323074341
			]
		},
		{
			"mesh":6,
			"name":"Sphere.005",
			"scale":[
				0.31460040807724,
				0.31460040807724,
				0.31460040807724
			],
			"translation":[
				5.65496826171875,
				2.1520586013793945,
				0.5765582323074341
			]
		},
		{
			"mesh":7,
			"name":"Sphere.006",
			"scale":[
				0.31460040807724,
				0.31460040807724,
				0.31460040807724
			],
			"translation":[
				5.65496826171875,
				2.684030532836914,
				0.5765582323074341
			]
		},
		{
			"mesh":8,
			"name":"Sphere.007",
			"scale":[
				0.31460040807724,
				0.31460040807724,
				0.31460040807724
			],
			"translation":[
				5.65496826171875,
				3.2306594848632812,
				0.5765582323074341
			]
		},
		{
			"mesh":9,
			"name":"Sphere.008",
			"scale":[
				0.31460040807724,
				0.31460040807724,
				0.31460040807724
			],
			"translation":[
				5.65496826171875,
				1.5791643857955933,
				0.5765582323074341
			]
		},
		{
			"mesh":10,
			"name":"Sphere.009",
			"scale":[
				0.31460040807724,
				0.31460040807724,
				0.31460040807724
			],
			"translation":[
				5.65496826171875,
				1.0471924543380737,
				0.5765582323074341
			]
		},
		{
			"mesh":11,
			"name":"height",
			"translation":[
				0,
				0.9708754420280457,
				0
			]
		},
		{
			"mesh":12,
			"name":"height.001",
			"translation":[
				0,
				-0.12993448972702026,
				0
			]
		},
		{
			"mesh":13,
			"name":"height.002",
			"translation":[
				0,
				-1.284728765487671,
				0
			]
		},
		{
			"mesh":14,
			"name":"height.003",
			"translation":[
				0,
				-4.60106086730957,
				0
			]
		},
		{
			"mesh":15,
			"name":"height.004",
			"translation":[
				0,
				-3.4462668895721436,
				0
			]
		},
		{
			"mesh":16,
			"name":"height.005",
			"translation":[
				0,
				-2.345456838607788,
				0
			]
		},
		{
			"mesh":17,
			"name":"height.006",
			"translation":[
				0,
				-5.784997940063477,
				0
			]
		},
		{
			"mesh":18,
			"name":"Plane",
			"translation":[
				0,
				-6.073482036590576,
				0
			]
		}
	],
	"meshes":[
		{
			"name":"Sphere",
			"primitives":[
				{
					"attributes":{
						"POSITION":0,
						"NORMAL":1,
						"TEXCOORD_0":2
					},
					"indices":3
				}
			]
		},
		{
			"name":"Roundcube.001",
			"primitives":[
				{
					"attributes":{
						"POSITION":4,
						"NORMAL":5,
						"TEXCOORD_0":6
					},
					"indices":7
				}
			]
		},
		{
			"name":"Sphere.001",
			"primitives":[
				{
					"attributes":{
						"POSITION":8,
						"NORMAL":9,
						"TEXCOORD_0":10
					},
					"indices":11
				}
			]
		},
		{
			"name":"Sphere.002",
			"primitives":[
				{
					"attributes":{
						"POSITION":12,
						"NORMAL":13,
						"TEXCOORD_0":14
					},
					"indices":15
				}
			]
		},
		{
			"name":"Sphere.003",
			"primitives":[
				{
					"attributes":{
						"POSITION":16,
						"NORMAL":17,
						"TEXCOORD_0":18
					},
					"indices":15
				}
			]
		},
		{
			"name":"Sphere.004",
			"primitives":[
				{
					"attributes":{
						"POSITION":19,
						"NORMAL":20,
						"TEXCOORD_0":21
					},
					"indices":15
				}
			]
		},
		{
			"name":"Sphere.005",
			"primitives":[
				{
					"attributes":{
						"POSITION":22,
						"NORMAL":23,
						"TEXCOORD_0":24
					},
					"indices":15
				}
			]
		},
		{
			"name":"Sphere.006",
			"primitives":[
				{
					"attributes":{
						"POSITION":25,
						"NORMAL":26,
						"TEXCOORD_0":27
					},
					"indices":15
				}
			]
		},
		{
			"name":"Sphere.007",
			"primitives":[
				{
					"attributes":{
						"POSITION":28,
						"NORMAL":29,
						"TEXCOORD_0":30
					},
					"indices":15
				}
			]
		},
		{
			"name":"Sphere.008",
			"primitives":[
				{
					"attributes":{
						"POSITION":31,
						"NORMAL":32,
						"TEXCOORD_0":33
					},
					"indices":15
				}
			]
		},
		{
			"name":"Sphere.009",
			"primitives":[
				{
					"attributes":{
						"POSITION":34,
						"NORMAL":35,
						"TEXCOORD_0":36
					},
					"indices":15
				}
			]
		},
		{
			"name":"Roundcube.002",
			"primitives":[
				{
					"attributes":{
						"POSITION":37,
						"NORMAL":38,
						"TEXCOORD_0":39
					},
					"indices":40
				}
			]
		},
		{
			"name":"Roundcube.003",
			"primitives":[
				{
					"attributes":{
						"POSITION":41,
						"NORMAL":42,
						"TEXCOORD_0":43
					},
					"indices":40
				}
			]
		},
		{
			"name":"Roundcube.004",
			"primitives":[
				{
					"attributes":{
						"POSITION":44,
						"NORMAL":45,
						"TEXCOORD_0":46
					},
					"indices":40
				}
			]
		},
		{
			"name":"Roundcube.005",
			"primitives":[
				{
					"attributes":{
						"POSITION":47,
						"NORMAL":48,
						"TEXCOORD_0":49
					},
					"indices":40
				}
			]
		},
		{
			"name":"Roundcube.006",
			"primitives":[
				{
					"attributes":{
						"POSITION":50,
						"NORMAL":51,
						"TEXCOORD_0":52
					},
					"indices":40
				}
			]
		},
		{
			"name":"Roundcube.007",
			"primitives":[
				{
					"attributes":{
						"POSITION":53,
						"NORMAL":54,
						"TEXCOORD_0":55
					},
					"indices":40
				}
			]
		},
		{
			"name":"Roundcube.008",
			"primitives":[
				{
					"attributes":{
						"POSITION":56,
						"NORMAL":57,
						"TEXCOORD_0":58
					},
					"indices":40
				}
			]
		},
		{
			"name":"Plane",
			"primitives":[
				{
					"attributes":{
						"POSITION":59,
						"NORMAL":60,
						"TEXCOORD_0":61
					},
					"indices":62
				}
			]
		}
	],
	"accessors":[
		{
			"bufferView":0,
			"componentType":5126,
			"count":1984,
			"max":[
				0.9999997019767761,
				1,
				0.9999993443489075
			],
			"min":[
				-0.9999990463256836,
				-1,
				-1
			],
			"type":"VEC3"
		},
		{
			"bufferView":1,
			"componentType":5126,
			"count":1984,
			"type":"VEC3"
		},
		{
			"bufferView":2,
			"componentType":5126,
			"count":1984,
			"type":"VEC2"
		},
		{
			"bufferView":3,
			"componentType":5123,
			"count":2880,
			"type":"SCALAR"
		},
		{
			"bufferView":4,
			"componentType":5126,
			"count":565,
			"max":[
				1.292313575744629,
				0.549384593963623,
				0.5215340852737427
			],
			"min":[
				0,
				-8.220183372497559,
				-1.692488193511963
			],
			"type":"VEC3"
		},
		{
			"bufferView":5,
			"componentType":5126,
			"count":565,
			"type":"VEC3"
		},
		{
			"bufferView":6,
			"componentType":5126,
			"count":565,
			"type":"VEC2"
		},
		{
			"bufferView":7,
			"componentType":5123,
			"count":3216,
			"type":"SCALAR"
		},
		{
			"bufferView":8,
			"componentType":5126,
			"count":1836,
			"max":[
				0.9999997019767761,
				1,
				0.9999993443489075
			],
			"min":[
				-1.0480232238769531,
				-2.985440731048584,
				-0.8759677410125732
			],
			"type":"VEC3"
		},
		{
			"bufferView":9,
			"componentType":5126,
			"count":1836,
			"type":"VEC3"
		},
		{
			"bufferView":10,
			"componentType":5126,
			"count":1836,
			"type":"VEC2"
		},
		{
			"bufferView":11,
			"componentType":5123,
			"count":2658,
			"type":"SCALAR"
		},
		{
			"bufferView":12,
			"componentType":5126,
			"count":1984,
			"max":[
				0.9999997019767761,
				1,
				0.9999993443489075
			],
			"min":[
				-0.9999990463256836,
				-1,
				-1
			],
			"type":"VEC3"
		},
		{
			"bufferView":13,
			"componentType":5126,
			"count":1984,
			"type":"VEC3"
		},
		{
			"bufferView":14,
			"componentType":5126,
			"count":1984,
			"type":"VEC2"
		},
		{
			"bufferView":15,
			"componentType":5123,
			"count":2880,
			"type":"SCALAR"
		},
		{
			"bufferView":16,
			"componentType":5126,
			"count":1984,
			"max":[
				0.9999997019767761,
				1,
				0.9999993443489075
			],
			"min":[
				-0.9999990463256836,
				-1,
				-1
			],
			"type":"VEC3"
		},
		{
			"bufferView":17,
			"componentType":5126,
			"count":1984,
			"type":"VEC3"
		},
		{
			"bufferView":18,
			"componentType":5126,
			"count":1984,
			"type":"VEC2"
		},
		{
			"bufferView":19,
			"componentType":5126,
			"count":1984,
			"max":[
				0.9999997019767761,
				1,
				0.9999993443489075
			],
			"min":[
				-0.9999990463256836,
				-1,
				-1
			],
			"type":"VEC3"
		},
		{
			"bufferView":20,
			"componentType":5126,
			"count":1984,
			"type":"VEC3"
		},
		{
			"bufferView":21,
			"componentType":5126,
			"count":1984,
			"type":"VEC2"
		},
		{
			"bufferView":22,
			"componentType":5126,
			"count":1984,
			"max":[
				0.9999997019767761,
				1,
				0.9999993443489075
			],
			"min":[
				-0.9999990463256836,
				-1,
				-1
			],
			"type":"VEC3"
		},
		{
			"bufferView":23,
			"componentType":5126,
			"count":1984,
			"type":"VEC3"
		},
		{
			"bufferView":24,
			"componentType":5126,
			"count":1984,
			"type":"VEC2"
		},
		{
			"bufferView":25,
			"componentType":5126,
			"count":1984,
			"max":[
				0.9999997019767761,
				1,
				0.9999993443489075
			],
			"min":[
				-0.9999990463256836,
				-1,
				-1
			],
			"type":"VEC3"
		},
		{
			"bufferView":26,
			"componentType":5126,
			"count":1984,
			"type":"VEC3"
		},
		{
			"bufferView":27,
			"componentType":5126,
			"count":1984,
			"type":"VEC2"
		},
		{
			"bufferView":28,
			"componentType":5126,
			"count":1984,
			"max":[
				0.9999997019767761,
				1,
				0.9999993443489075
			],
			"min":[
				-0.9999990463256836,
				-1,
				-1
			],
			"type":"VEC3"
		},
		{
			"bufferView":29,
			"componentType":5126,
			"count":1984,
			"type":"VEC3"
		},
		{
			"bufferView":30,
			"componentType":5126,
			"count":1984,
			"type":"VEC2"
		},
		{
			"bufferView":31,
			"componentType":5126,
			"count":1984,
			"max":[
				0.9999997019767761,
				1,
				0.9999993443489075
			],
			"min":[
				-0.9999990463256836,
				-1,
				-1
			],
			"type":"VEC3"
		},
		{
			"bufferView":32,
			"componentType":5126,
			"count":1984,
			"type":"VEC3"
		},
		{
			"bufferView":33,
			"componentType":5126,
			"count":1984,
			"type":"VEC2"
		},
		{
			"bufferView":34,
			"componentType":5126,
			"count":1984,
			"max":[
				0.9999997019767761,
				1,
				0.9999993443489075
			],
			"min":[
				-0.9999990463256836,
				-1,
				-1
			],
			"type":"VEC3"
		},
		{
			"bufferView":35,
			"componentType":5126,
			"count":1984,
			"type":"VEC3"
		},
		{
			"bufferView":36,
			"componentType":5126,
			"count":1984,
			"type":"VEC2"
		},
		{
			"bufferView":37,
			"componentType":5126,
			"count":763,
			"max":[
				0.5283202528953552,
				0.549384593963623,
				0.268013060092926
			],
			"min":[
				0,
				-0.731154203414917,
				-0.9350075125694275
			],
			"type":"VEC3"
		},
		{
			"bufferView":38,
			"componentType":5126,
			"count":763,
			"type":"VEC3"
		},
		{
			"bufferView":39,
			"componentType":5126,
			"count":763,
			"type":"VEC2"
		},
		{
			"bufferView":40,
			"componentType":5123,
			"count":1149,
			"type":"SCALAR"
		},
		{
			"bufferView":41,
			"componentType":5126,
			"count":763,
			"max":[
				0.5283202528953552,
				0.549384593963623,
				0.268013060092926
			],
			"min":[
				0,
				-0.731154203414917,
				-0.9350075125694275
			],
			"type":"VEC3"
		},
		{
			"bufferView":42,
			"componentType":5126,
			"count":763,
			"type":"VEC3"
		},
		{
			"bufferView":43,
			"componentType":5126,
			"count":763,
			"type":"VEC2"
		},
		{
			"bufferView":44,
			"componentType":5126,
			"count":763,
			"max":[
				0.5283202528953552,
				0.549384593963623,
				0.268013060092926
			],
			"min":[
				0,
				-0.731154203414917,
				-0.9350075125694275
			],
			"type":"VEC3"
		},
		{
			"bufferView":45,
			"componentType":5126,
			"count":763,
			"type":"VEC3"
		},
		{
			"bufferView":46,
			"componentType":5126,
			"count":763,
			"type":"VEC2"
		},
		{
			"bufferView":47,
			"componentType":5126,
			"count":763,
			"max":[
				0.5283202528953552,
				0.549384593963623,
				0.268013060092926
			],
			"min":[
				0,
				-0.731154203414917,
				-0.9350075125694275
			],
			"type":"VEC3"
		},
		{
			"bufferView":48,
			"componentType":5126,
			"count":763,
			"type":"VEC3"
		},
		{
			"bufferView":49,
			"componentType":5126,
			"count":763,
			"type":"VEC2"
		},
		{
			"bufferView":50,
			"componentType":5126,
			"count":763,
			"max":[
				0.5283202528953552,
				0.549384593963623,
				0.268013060092926
			],
			"min":[
				0,
				-0.731154203414917,
				-0.9350075125694275
			],
			"type":"VEC3"
		},
		{
			"bufferView":51,
			"componentType":5126,
			"count":763,
			"type":"VEC3"
		},
		{
			"bufferView":52,
			"componentType":5126,
			"count":763,
			"type":"VEC2"
		},
		{
			"bufferView":53,
			"componentType":5126,
			"count":763,
			"max":[
				0.5283202528953552,
				0.549384593963623,
				0.268013060092926
			],
			"min":[
				0,
				-0.731154203414917,
				-0.9350075125694275
			],
			"type":"VEC3"
		},
		{
			"bufferView":54,
			"componentType":5126,
			"count":763,
			"type":"VEC3"
		},
		{
			"bufferView":55,
			"componentType":5126,
			"count":763,
			"type":"VEC2"
		},
		{
			"bufferView":56,
			"componentType":5126,
			"count":763,
			"max":[
				0.5283202528953552,
				0.549384593963623,
				0.268013060092926
			],
			"min":[
				0,
				-0.731154203414917,
				-0.9350075125694275
			],
			"type":"VEC3"
		},
		{
			"bufferView":57,
			"componentType":5126,
			"count":763,
			"type":"VEC3"
		},
		{
			"bufferView":58,
			"componentType":5126,
			"count":763,
			"type":"VEC2"
		},
		{
			"bufferView":59,
			"componentType":5126,
			"count":4,
			"max":[
				1,
				0,
				1
			],
			"min":[
				-1,
				0,
				-1
			],
			"type":"VEC3"
		},
		{
			"bufferView":60,
			"componentType":5126,
			"count":4,
			"type":"VEC3"
		},
		{
			"bufferView":61,
			"componentType":5126,
			"count":4,
			"type":"VEC2"
		},
		{
			"bufferView":62,
			"componentType":5123,
			"count":6,
			"type":"SCALAR"
		}
	],
	"bufferViews":[
		{
			"buffer":0,
			"byteLength":23808,
			"byteOffset":0,
			"target":34962
		},
		{
			"buffer":0,
			"byteLength":23808,
			"byteOffset":23808,
			"target":34962
		},
		{
			"buffer":0,
			"byteLength":15872,
			"byteOffset":47616,
			"target":34962
		},
		{
			"buffer":0,
			"byteLength":5760,
			"byteOffset":63488,
			"target":34963
		},
		{
			"buffer":0,
			"byteLength":6780,
			"byteOffset":69248,
			"target":34962
		},
		{
			"buffer":0,
			"byteLength":6780,
			"byteOffset":76028,
			"target":34962
		},
		{
			"buffer":0,
			"byteLength":4520,
			"byteOffset":82808,
			"target":34962
		},
		{
			"buffer":0,
			"byteLength":6432,
			"byteOffset":87328,
			"target":34963
		},
		{
			"buffer":0,
			"byteLength":22032,
			"byteOffset":93760,
			"target":34962
		},
		{
			"buffer":0,
			"byteLength":22032,
			"byteOffset":115792,
			"target":34962
		},
		{
			"buffer":0,
			"byteLength":14688,
			"byteOffset":137824,
			"target":34962
		},
		{
			"buffer":0,
			"byteLength":5316,
			"byteOffset":152512,
			"target":34963
		},
		{
			"buffer":0,
			"byteLength":23808,
			"byteOffset":157828,
			"target":34962
		},
		{
			"buffer":0,
			"byteLength":23808,
			"byteOffset":181636,
			"target":34962
		},
		{
			"buffer":0,
			"byteLength":15872,
			"byteOffset":205444,
			"target":34962
		},
		{
			"buffer":0,
			"byteLength":5760,
			"byteOffset":221316,
			"target":34963
		},
		{
			"buffer":0,
			"byteLength":23808,
			"byteOffset":227076,
			"target":34962
		},
		{
			"buffer":0,
			"byteLength":23808,
			"byteOffset":250884,
			"target":34962
		},
		{
			"buffer":0,
			"byteLength":15872,
			"byteOffset":274692,
			"target":34962
		},
		{
			"buffer":0,
			"byteLength":23808,
			"byteOffset":290564,
			"target":34962
		},
		{
			"buffer":0,
			"byteLength":23808,
			"byteOffset":314372,
			"target":34962
		},
		{
			"buffer":0,
			"byteLength":15872,
			"byteOffset":338180,
			"target":34962
		},
		{
			"buffer":0,
			"byteLength":23808,
			"byteOffset":354052,
			"target":34962
		},
		{
			"buffer":0,
			"byteLength":23808,
			"byteOffset":377860,
			"target":34962
		},
		{
			"buffer":0,
			"byteLength":15872,
			"byteOffset":401668,
			"target":34962
		},
		{
			"buffer":0,
			"byteLength":23808,
			"byteOffset":417540,
			"target":34962
		},
		{
			"buffer":0,
			"byteLength":23808,
			"byteOffset":441348,
			"target":34962
		},
		{
			"buffer":0,
			"byteLength":15872,
			"byteOffset":465156,
			"target":34962
		},
		{
			"buffer":0,
			"byteLength":23808,
			"byteOffset":481028,
			"target":34962
		},
		{
			"buffer":0,
			"byteLength":23808,
			"byteOffset":504836,
			"target":34962
		},
		{
			"buffer":0,
			"byteLength":15872,
			"byteOffset":528644,
			"target":34962
		},
		{
			"buffer":0,
			"byteLength":23808,
			"byteOffset":544516,
			"target":34962
		},
		{
			"buffer":0,
			"byteLength":23808,
			"byteOffset":568324,
			"target":34962
		},
		{
			"buffer":0,
			"byteLength":15872,
			"byteOffset":592132,
			"target":34962
		},
		{
			"buffer":0,
			"byteLength":23808,
			"byteOffset":608004,
			"target":34962
		},
		{
			"buffer":0,
			"byteLength":23808,
			"byteOffset":631812,
			"target":34962
		},
		{
			"buffer":0,
			"byteLength":15872,
			"byteOffset":655620,
			"target":34962
		},
		{
			"buffer":0,
			"byteLength":9156,
			"byteOffset":671492,
			"target":34962
		},
		{
			"buffer":0,
			"byteLength":9156,
			"byteOffset":680648,
			"target":34962
		},
		{
			"buffer":0,
			"byteLength":6104,
			"byteOffset":689804,
			"target":34962
		},
		{
			"buffer":0,
			"byteLength":2298,
			"byteOffset":695908,
			"target":34963
		},
		{
			"buffer":0,
			"byteLength":9156,
			"byteOffset":698208,
			"target":34962
		},
		{
			"buffer":0,
			"byteLength":9156,
			"byteOffset":707364,
			"target":34962
		},
		{
			"buffer":0,
			"byteLength":6104,
			"byteOffset":716520,
			"target":34962
		},
		{
			"buffer":0,
			"byteLength":9156,
			"byteOffset":722624,
			"target":34962
		},
		{
			"buffer":0,
			"byteLength":9156,
			"byteOffset":731780,
			"target":34962
		},
		{
			"buffer":0,
			"byteLength":6104,
			"byteOffset":740936,
			"target":34962
		},
		{
			"buffer":0,
			"byteLength":9156,
			"byteOffset":747040,
			"target":34962
		},
		{
			"buffer":0,
			"byteLength":9156,
			"byteOffset":756196,
			"target":34962
		},
		{
			"buffer":0,
			"byteLength":6104,
			"byteOffset":765352,
			"target":34962
		},
		{
			"buffer":0,
			"byteLength":9156,
			"byteOffset":771456,
			"target":34962
		},
		{
			"buffer":0,
			"byteLength":9156,
			"byteOffset":780612,
			"target":34962
		},
		{
			"buffer":0,
			"byteLength":6104,
			"byteOffset":789768,
			"target":34962
		},
		{
			"buffer":0,
			"byteLength":9156,
			"byteOffset":795872,
			"target":34962
		},
		{
			"buffer":0,
			"byteLength":9156,
			"byteOffset":805028,
			"target":34962
		},
		{
			"buffer":0,
			"byteLength":6104,
			"byteOffset":814184,
			"target":34962
		},
		{
			"buffer":0,
			"byteLength":9156,
			"byteOffset":820288,
			"target":34962
		},
		{
			"buffer":0,
			"byteLength":9156,
			"byteOffset":829444,
			"target":34962
		},
		{
			"buffer":0,
			"byteLength":6104,
			"byteOffset":838600,
			"target":34962
		},
		{
			"buffer":0,
			"byteLength":48,
			"byteOffset":844704,
			"target":34962
		},
		{
			"buffer":0,
			"byteLength":48,
			"byteOffset":844752,
			"target":34962
		},
		{
			"buffer":0,
			"byteLength":32,
			"byteOffset":844800,
			"target":34962
		},
		{
			"buffer":0,
			"byteLength":12,
			"byteOffset":844832,
			"target":34963
		}
	],
	"buffers":[
		{
			"byteLength":844844,
			"uri":"scene.bin"
		}
	]
}
