{
	"asset":{
		"generator":"Khronos glTF Blender I/O v4.0.44",
		"version":"2.0"
	},
	"scene":0,
	"scenes":[
		{
			"name":"Scene",
			"nodes":[
				0,
				1,
				2,
				3
			]
		}
	],
	"nodes":[
		{
			"mesh":0,
			"name":"Sphere",
			"scale":[
				-0.16964678466320038,
				-0.16964678466320038,
				-0.16964678466320038
			],
			"translation":[
				0.02233278751373291,
				0,
				-1.073368787765503
			]
		},
		{
			"name":"Empty.001",
			"rotation":[
				0,
				-0.7071066498756409,
				0.70710688829422,
				3.090861255827804e-08
			],
			"scale":[
				0.6144617199897766,
				0.6144617199897766,
				0.6144617199897766
			],
			"translation":[
				2.530316114425659,
				0.18319401144981384,
				-0.8066748380661011
			]
		},
		{
			"name":"Empty",
			"rotation":[
				0.1830127090215683,
				0.6830126643180847,
				-0.6830127239227295,
				0.1830127090215683
			],
			"scale":[
				0.4923659563064575,
				0.4923659563064575,
				0.4923659563064575
			],
			"translation":[
				-1.7164303064346313,
				0.2958976626396179,
				0.8201032876968384
			]
		},
		{
			"mesh":1,
			"name":"Roundcube.001",
			"rotation":[
				0.010823375545442104,
				-0.01018691435456276,
				-0.013321599923074245,
				0.9998008012771606
			]
		}
	],
	"meshes":[
		{
			"name":"Sphere",
			"primitives":[
				{
					"attributes":{
						"POSITION":0,
						"NORMAL":1,
						"TEXCOORD_0":2
					},
					"indices":3
				}
			]
		},
		{
			"name":"Roundcube.001",
			"primitives":[
				{
					"attributes":{
						"POSITION":4,
						"NORMAL":5,
						"TEXCOORD_0":6
					},
					"indices":7
				}
			]
		}
	],
	"accessors":[
		{
			"bufferView":0,
			"componentType":5126,
			"count":1984,
			"max":[
				0.9999997019767761,
				1,
				0.9999993443489075
			],
			"min":[
				-0.9999990463256836,
				-1,
				-1
			],
			"type":"VEC3"
		},
		{
			"bufferView":1,
			"componentType":5126,
			"count":1984,
			"type":"VEC3"
		},
		{
			"bufferView":2,
			"componentType":5126,
			"count":1984,
			"type":"VEC2"
		},
		{
			"bufferView":3,
			"componentType":5123,
			"count":2880,
			"type":"SCALAR"
		},
		{
			"bufferView":4,
			"componentType":5126,
			"count":304,
			"max":[
				0.5587983131408691,
				0.6810056567192078,
				0.45053941011428833
			],
			"min":[
				0,
				-0.8257390856742859,
				-0.9328839182853699
			],
			"type":"VEC3"
		},
		{
			"bufferView":5,
			"componentType":5126,
			"count":304,
			"type":"VEC3"
		},
		{
			"bufferView":6,
			"componentType":5126,
			"count":304,
			"type":"VEC2"
		},
		{
			"bufferView":7,
			"componentType":5123,
			"count":462,
			"type":"SCALAR"
		}
	],
	"bufferViews":[
		{
			"buffer":0,
			"byteLength":23808,
			"byteOffset":0,
			"target":34962
		},
		{
			"buffer":0,
			"byteLength":23808,
			"byteOffset":23808,
			"target":34962
		},
		{
			"buffer":0,
			"byteLength":15872,
			"byteOffset":47616,
			"target":34962
		},
		{
			"buffer":0,
			"byteLength":5760,
			"byteOffset":63488,
			"target":34963
		},
		{
			"buffer":0,
			"byteLength":3648,
			"byteOffset":69248,
			"target":34962
		},
		{
			"buffer":0,
			"byteLength":3648,
			"byteOffset":72896,
			"target":34962
		},
		{
			"buffer":0,
			"byteLength":2432,
			"byteOffset":76544,
			"target":34962
		},
		{
			"buffer":0,
			"byteLength":924,
			"byteOffset":78976,
			"target":34963
		}
	],
	"buffers":[
		{
			"byteLength":79900,
			"uri":"scene.bin"
		}
	]
}
