{
	"asset":{
		"generator":"Khronos glTF Blender I/O v4.0.44",
		"version":"2.0"
	},
	"scene":0,
	"scenes":[
		{
			"name":"Scene",
			"nodes":[
				0
			]
		}
	],
	"nodes":[
		{
			"mesh":0,
			"name":"Roundcube.001",
			"translation":[
				0,
				2.145793914794922,
				0
			]
		}
	],
	"materials":[
		{
			"doubleSided":true,
			"name":"Material.001",
			"pbrMetallicRoughness":{
				"baseColorFactor":[
					0.04691358655691147,
					0.06141240894794464,
					0.8001017570495605,
					1
				],
				"metallicFactor":0,
				"roughnessFactor":0.5
			}
		}
	],
	"meshes":[
		{
			"name":"Roundcube.001",
			"primitives":[
				{
					"attributes":{
						"POSITION":0,
						"NORMAL":1,
						"TEXCOORD_0":2
					},
					"indices":3,
					"material":0
				}
			]
		}
	],
	"accessors":[
		{
			"bufferView":0,
			"componentType":5126,
			"count":1071,
			"max":[
				1.292313575744629,
				0.549384593963623,
				0.5215340852737427
			],
			"min":[
				-1.292313575744629,
				-8.220183372497559,
				-1.692488193511963
			],
			"type":"VEC3"
		},
		{
			"bufferView":1,
			"componentType":5126,
			"count":1071,
			"type":"VEC3"
		},
		{
			"bufferView":2,
			"componentType":5126,
			"count":1071,
			"type":"VEC2"
		},
		{
			"bufferView":3,
			"componentType":5123,
			"count":6432,
			"type":"SCALAR"
		}
	],
	"bufferViews":[
		{
			"buffer":0,
			"byteLength":12852,
			"byteOffset":0,
			"target":34962
		},
		{
			"buffer":0,
			"byteLength":12852,
			"byteOffset":12852,
			"target":34962
		},
		{
			"buffer":0,
			"byteLength":8568,
			"byteOffset":25704,
			"target":34962
		},
		{
			"buffer":0,
			"byteLength":12864,
			"byteOffset":34272,
			"target":34963
		}
	],
	"buffers":[
		{
			"byteLength":47136,
			"uri":"scene.bin"
		}
	]
}
